PathFileType	4	(X/Y/Z)	C:/Users/beibeiliu/ov580/test_trc\sequence.5_training_dense_right.trc
DataRate	CameraRate	NumFrames	NumMarkers	Units	OrigDataRate	OrigDataStartFrame	OrigNumFrames
120	120	8	19	mm	120	253	336
Frame#	Time	ThumbCMC			ThumbMCP			ThumbIP			ThumbTip			IndexMCP			IndexPIP			IndexTip			MiddleMCP			MiddlePIP			MiddleTip			RingMCP			RingPIP			RingTip			PinkyMCP			PinkyPIP			PinkyTip			BackHand1			BackHand2			BackHand3	
		X0	Y0	Z0	X1	Y1	Z1	X2	Y2	Z2	X3	Y3	Z3	X4	Y4	Z4	X5	Y5	Z5	X6	Y6	Z6	X7	Y7	Z7	X8	Y8	Z8	X9	Y9	Z9	X10	Y10	Z10	X11	Y11	Z11	X12	Y12	Z12	X13	Y13	Z13	X14	Y14	Z14	X15	Y15	Z15	X16	Y16	Z16	X17	Y17	Z17	X18	Y18	Z18	
252	2.1	206.447	-7.77027	14.6574	206.643	21.953	0.269452	196.662	39.9297	-10.5579	178.607	51.824	-16.0314	181.89	8.82406	-43.699	181.426	36.4215	-54.8051	183.212	63.7345	-44.7202	165.5	22.5682	-33.95	165.668	47.0582	-18.4789	177.866	25.7228	7.11448	151.945	23.9409	-18.1274	159.808	40.763	1.86658	171.795	18.5861	18.676	142.416	20.5543	-7.5961	152.071	33.5342	11.1959	164.688	14.1437	24.2207	153.184	-25.3452	-1.64637	158.961	-37.9349	21.9968	181.149	-30.9601	1.30564	
253	2.10833	206.101	-3.45491	13.1869	205	22.9218	3.85412	195.027	43.6809	-14.8705	178.034	56.9231	-23.4697	187.533	9.59263	-45.463	184.021	31.4392	-60.7108	182.069	55.018	-64.0512	167.097	22.5935	-35.9342	164.286	49.018	-19.2722	176.49	32.5002	6.32783	148.727	25.02	-20.9253	157.522	41.8203	-4.04949	170.473	24.8192	16.3031	137.349	19.6555	-8.52767	148.734	35.9866	4.20163	163.878	20.5015	21.6577	155.204	-21.9787	-1.95871	164.876	-37.3059	20.6258	183.261	-29.2938	2.53302	
254	2.11667	204.14	1.76205	18.2389	200.994	28.8355	3.47117	191.97	44.1639	-12.8723	173.605	54.3959	-24.4339	185.653	12.382	-47.659	182.22	27.393	-61.7446	180.893	52.1765	-77.3533	166.261	22.5419	-37.8004	161.013	51.2201	-26.0976	170.495	39.9097	4.48016	148.173	24.4001	-24.1647	154.17	45.28	-7.21899	166.625	30.0906	14.7482	133.805	18.8894	-11.8347	148.991	36.8603	1.16927	161.075	24.6825	16.1809	156.772	-23.3254	0.131338	168.36	-33.2765	19.109	188.858	-24.122	4.73152	
255	2.125	205.461	10.7401	22.1408	199.128	37.4653	2.32354	189.061	53.0937	-13.7164	168.954	60.9067	-27.6704	190.237	16.1855	-42.349	186.857	29.8184	-63.7719	181.519	46.409	-83.6583	164.209	25.9288	-40.0183	153.759	52.2478	-31.8622	158.997	52.5214	-1.87902	147.74	21.3161	-25.3585	146.762	46.6944	-7.85435	159.38	37.4665	12.039	132.694	15.8095	-14.3693	140.075	36.5677	-0.683052	156.808	29.8008	14.7761	162.528	-18.736	-3.06194	172.691	-31.0674	23.0597	193.679	-14.86	4.79579	
256	2.13333	201.183	20.2134	20.5109	192.597	44.8121	5.27402	180.141	55.09	-12.9523	162.032	56.9034	-24.0501	189.816	24.7324	-42.6145	189.538	34.8289	-60.8056	184.265	46.531	-81.8057	163.055	25.5707	-39.7369	146.555	52.4707	-36.4989	148.805	59.9232	-4.40307	148.49	27.0182	-29.1425	137.589	44.0714	-12.6697	150.853	41.7351	11.5128	133.191	16.2196	-17.9583	137.248	35.6183	-3.64859	149.402	33.2547	14.2099	171.203	-14.982	-3.10608	179.319	-25.5296	19.3754	195.311	-10.3292	7.80295	
257	2.14167	199.289	31.0003	26.639	184.984	50.8535	7.78619	170.255	59.5508	-10.335	150.518	51.628	-24.6109	193.158	36.0995	-40.9236	186.626	43.079	-63.2121	185.178	52.5728	-81.1072	165.94	33.6501	-41.9179	144.909	53.8394	-40.9659	136.17	62.4655	-9.8616	148.736	26.8303	-30.6531	134.42	44.795	-14.7104	144.375	43.5311	9.7344	135.847	13.1658	-20.0614	130.459	32.1259	-8.61979	144.922	32.2118	14.9311	173.299	-9.54321	-5.54936	182.791	-20.3846	18.9446	197.962	0.492304	9.67095	
258	2.15	191.277	37.4747	29.1158	175.303	61.1027	7.12334	159.52	61.3021	-10.603	140.069	49.3484	-25.0402	191.057	40.5724	-37.5319	187.235	50.5839	-61.1563	183.774	57.9946	-77.473	162.84	33.6778	-41.2838	139.883	56.8577	-41.7857	127.435	61.667	-13.314	144.217	25.2621	-32.84	130.214	43.7032	-17.5033	138.581	40.1926	10.23	141.265	10.0933	-21.6881	126.082	28.9419	-9.77641	141.144	33.2873	11.4316	179.998	-5.74906	-3.9547	183.489	-15.6026	19.3142	200.913	10.1689	9.79232	
259	2.15833	186.991	43.8889	29.2351	167.023	60.9806	9.63304	152.55	63.471	-8.6905	135.397	54.6152	-23.2358	190.933	51.3902	-37.2848	186.176	60.5661	-57.1574	182.48	71.0108	-78.0407	161.1	38.0837	-43.3707	139.439	56.3955	-43.256	120.735	56.9162	-19.2593	150.802	26.5954	-33.0749	129.693	38.983	-22.9408	134.036	42.2739	4.9469	139.4	9.55857	-26.2052	126.568	28.5142	-12.2415	135.176	34.1372	8.22431	181.32	-2.45605	-6.15115	185.92	-11.3945	23.1448	200.47	18.8569	14.7171	
